<?xml version="1.0" standalone="no"?>
<!DOCTYPE svg PUBLIC "-//W3C//DTD SVG 20010904//EN"
 "http://www.w3.org/TR/2001/REC-SVG-20010904/DTD/svg10.dtd">
<svg version="1.0" xmlns="http://www.w3.org/2000/svg"
 width="512.000000pt" height="512.000000pt" viewBox="0 0 512.000000 512.000000"
 preserveAspectRatio="xMidYMid meet">
<metadata>
Created by potrace 1.11, written by Peter Selinger 2001-2013
</metadata>
<g transform="translate(0.000000,512.000000) scale(0.100000,-0.100000)"
fill="#000000" stroke="none">
<path d="M1754 4756 c-127 -40 -269 -156 -322 -263 -16 -32 -57 -136 -93 -230
l-63 -173 -338 0 c-380 0 -434 -6 -554 -66 -137 -68 -253 -183 -319 -319 -69
-140 -65 -52 -65 -1495 0 -1255 1 -1308 19 -1372 65 -227 265 -425 487 -482
56 -14 268 -16 2054 -16 2214 0 2038 -5 2190 68 107 52 251 196 303 304 71
148 67 50 67 1501 0 1448 4 1361 -65 1496 -68 134 -188 252 -320 316 -121 59
-175 65 -553 65 l-337 0 -75 202 c-102 275 -161 351 -340 437 l-75 36 -780 2
c-611 1 -789 -1 -821 -11z m985 -1372 c312 -46 584 -212 783 -479 192 -256
267 -597 204 -927 -44 -227 -149 -420 -326 -598 -236 -235 -505 -349 -830
-350 -330 -1 -605 110 -832 334 -225 223 -331 442 -359 743 -34 369 93 702
369 965 272 259 617 367 991 312z"/>
<path d="M2430 2975 c-170 -32 -292 -96 -416 -219 -45 -45 -99 -112 -122 -151
-135 -230 -140 -518 -14 -759 70 -134 241 -288 389 -350 136 -57 332 -69 493
-31 191 46 391 207 489 395 106 203 113 458 19 669 -85 189 -269 355 -462 416
-141 45 -245 53 -376 30z"/>
</g>
</svg>
